<svg width="1537" height="273" viewBox="0 0 1537 273" fill="none" xmlns="http://www.w3.org/2000/svg">
<path d="M1505.65 129.5H1536.61V255.5H1505.65V129.5Z" fill="black"/>
<path d="M1398.49 231.2L1400.65 207.98H1463.11L1465.09 231.2H1398.49ZM1431.43 175.76L1413.79 216.44L1415.23 223.1L1399.57 255.5H1365.19L1431.43 121.58L1497.85 255.5H1463.29L1448.17 224.36L1449.25 216.62L1431.43 175.76Z" fill="black"/>
<path d="M1240.88 211.22C1243.4 215.78 1246.22 219.74 1249.34 223.1C1252.58 226.46 1256.06 229.04 1259.78 230.84C1263.62 232.64 1267.64 233.54 1271.84 233.54C1276.28 233.54 1279.94 232.46 1282.82 230.3C1285.7 228.02 1287.14 224.96 1287.14 221.12C1287.14 217.88 1286.3 215.3 1284.62 213.38C1282.94 211.34 1280.24 209.42 1276.52 207.62C1272.8 205.82 1267.88 203.78 1261.76 201.5C1258.76 200.42 1255.28 198.92 1251.32 197C1247.48 195.08 1243.82 192.62 1240.34 189.62C1236.86 186.5 1233.98 182.78 1231.7 178.46C1229.42 174.02 1228.28 168.68 1228.28 162.44C1228.28 155 1230.2 148.58 1234.04 143.18C1238 137.78 1243.28 133.7 1249.88 130.94C1256.6 128.06 1264.04 126.62 1272.2 126.62C1280.6 126.62 1287.86 128 1293.98 130.76C1300.22 133.52 1305.38 137 1309.46 141.2C1313.54 145.4 1316.66 149.66 1318.82 153.98L1295.6 166.94C1293.8 163.94 1291.7 161.36 1289.3 159.2C1287.02 156.92 1284.44 155.18 1281.56 153.98C1278.8 152.66 1275.8 152 1272.56 152C1268.24 152 1264.94 152.96 1262.66 154.88C1260.38 156.68 1259.24 158.96 1259.24 161.72C1259.24 164.6 1260.32 167.12 1262.48 169.28C1264.76 171.44 1267.94 173.42 1272.02 175.22C1276.22 177.02 1281.26 178.94 1287.14 180.98C1291.58 182.66 1295.72 184.64 1299.56 186.92C1303.4 189.08 1306.76 191.72 1309.64 194.84C1312.64 197.96 1314.98 201.56 1316.66 205.64C1318.34 209.72 1319.18 214.4 1319.18 219.68C1319.18 226.04 1317.86 231.74 1315.22 236.78C1312.7 241.7 1309.22 245.84 1304.78 249.2C1300.46 252.56 1295.48 255.08 1289.84 256.76C1284.32 258.56 1278.62 259.46 1272.74 259.46C1264.58 259.46 1256.96 258.02 1249.88 255.14C1242.92 252.14 1236.86 248.12 1231.7 243.08C1226.54 238.04 1222.52 232.52 1219.64 226.52L1240.88 211.22Z" fill="black"/>
<path d="M1106.57 129.5H1138.07V255.5H1106.57V129.5ZM1180.91 129.5H1216.55L1165.43 188.54L1219.25 255.5H1182.35L1129.25 189.44L1180.91 129.5Z" fill="black"/>
<path d="M1026.92 198.44H1058.42L1097.84 255.5H1062.2L1026.92 198.44ZM995.422 129.5H1025.84V255.5H995.422V129.5ZM1014.5 155.24V129.5H1041.32C1052.12 129.5 1061.12 131.24 1068.32 134.72C1075.52 138.2 1080.98 143.06 1084.7 149.3C1088.42 155.42 1090.28 162.56 1090.28 170.72C1090.28 178.76 1088.42 185.9 1084.7 192.14C1080.98 198.26 1075.52 203.06 1068.32 206.54C1061.12 210.02 1052.12 211.76 1041.32 211.76H1014.5V188.18H1039.16C1043.24 188.18 1046.72 187.58 1049.6 186.38C1052.6 185.06 1054.88 183.2 1056.44 180.8C1058 178.28 1058.78 175.28 1058.78 171.8C1058.78 168.32 1058 165.38 1056.44 162.98C1054.88 160.46 1052.6 158.54 1049.6 157.22C1046.72 155.9 1043.24 155.24 1039.16 155.24H1014.5Z" fill="black"/>
<path d="M878.011 192.5C878.011 199.94 879.451 206.54 882.331 212.3C885.331 217.94 889.471 222.38 894.751 225.62C900.151 228.86 906.451 230.48 913.651 230.48C920.731 230.48 926.911 228.86 932.191 225.62C937.591 222.38 941.731 217.94 944.611 212.3C947.611 206.54 949.111 199.94 949.111 192.5C949.111 185.06 947.671 178.52 944.791 172.88C941.911 167.12 937.831 162.62 932.551 159.38C927.271 156.14 920.971 154.52 913.651 154.52C906.451 154.52 900.151 156.14 894.751 159.38C889.471 162.62 885.331 167.12 882.331 172.88C879.451 178.52 878.011 185.06 878.011 192.5ZM845.791 192.5C845.791 182.78 847.471 173.9 850.831 165.86C854.311 157.82 859.111 150.86 865.231 144.98C871.351 139.1 878.551 134.6 886.831 131.48C895.111 128.24 904.051 126.62 913.651 126.62C923.371 126.62 932.311 128.24 940.471 131.48C948.751 134.6 955.951 139.1 962.071 144.98C968.191 150.86 972.931 157.82 976.291 165.86C979.651 173.9 981.331 182.78 981.331 192.5C981.331 202.22 979.651 211.16 976.291 219.32C973.051 227.48 968.371 234.56 962.251 240.56C956.251 246.56 949.111 251.24 940.831 254.6C932.551 257.84 923.491 259.46 913.651 259.46C903.691 259.46 894.571 257.84 886.291 254.6C878.011 251.24 870.811 246.56 864.691 240.56C858.691 234.56 854.011 227.48 850.651 219.32C847.411 211.16 845.791 202.22 845.791 192.5Z" fill="black"/>
<path d="M786.25 201.32L810.73 129.5H846.91L792.37 262.88L751.69 186.92L711.19 262.88L656.65 129.5H692.65L717.49 201.32L751.69 123.2L786.25 201.32Z" fill="black"/>
<path d="M546.739 191.24L539.179 255.5H507.139L527.479 123.2L581.119 200.06L634.939 123.2L655.279 255.5H623.239L615.679 191.24L581.119 243.8L546.739 191.24Z" fill="black"/>
<path d="M407.175 231.2L409.335 207.98H471.795L473.775 231.2H407.175ZM440.115 175.76L422.475 216.44L423.915 223.1L408.255 255.5H373.875L440.115 121.58L506.535 255.5H471.975L456.855 224.36L457.935 216.62L440.115 175.76Z" fill="black"/>
<path d="M304.478 255.5V230.48H368.018V255.5H304.478ZM304.478 154.52V129.5H368.018V154.52H304.478ZM304.478 201.5V177.02H364.418V201.5H304.478ZM284.318 129.5H313.478V255.5H284.318V129.5Z" fill="black"/>
<path d="M176.219 156.68V129.5H275.939V156.68H241.199V255.5H210.779V156.68H176.219Z" fill="black"/>
<path d="M159 175C146.639 175 134.555 171.334 124.277 164.467C113.999 157.599 105.988 147.838 101.258 136.418C96.5271 124.997 95.2894 112.431 97.701 100.307C100.113 88.1831 106.065 77.0466 114.806 68.3058C123.547 59.5651 134.683 53.6125 146.807 51.2009C158.931 48.7894 171.497 50.0271 182.918 54.7576C194.338 59.488 204.099 67.4988 210.967 77.7769C217.834 88.055 221.5 100.139 221.5 112.5L159 112.5L159 175Z" fill="#F97800"/>
<path d="M159 25C147.51 25 136.131 27.263 125.516 31.6602C114.9 36.0574 105.253 42.5028 97.1279 50.6279C89.0028 58.7531 82.5574 68.3996 78.1602 79.0156C73.763 89.6315 71.5 101.01 71.5 112.5C71.5 123.99 73.763 135.369 78.1601 145.984C82.5574 156.6 89.0028 166.247 97.1279 174.372C105.253 182.497 114.9 188.943 125.516 193.34C136.131 197.737 147.51 200 159 200L159 225C144.226 225 129.597 222.09 115.948 216.437C102.299 210.783 89.8968 202.496 79.4502 192.05C69.0036 181.603 60.7171 169.201 55.0635 155.552C49.4099 141.903 46.5 127.274 46.5 112.5C46.5 97.7263 49.4099 83.0973 55.0635 69.4482C60.7171 55.7991 69.0036 43.3968 79.4502 32.9502C89.8968 22.5036 102.299 14.2171 115.948 8.56347C129.597 2.90986 144.226 -6.45777e-07 159 0L159 25Z" fill="#C63678"/>
<path d="M159.5 272.5C138.554 272.5 117.813 268.374 98.4619 260.358C79.1106 252.343 61.5277 240.594 46.7168 225.783C31.9059 210.972 20.1572 193.389 12.1416 174.038C4.12596 154.687 -9.15571e-07 133.946 0 113L25 113C25 130.663 28.4791 148.152 35.2383 164.471C41.9975 180.789 51.905 195.616 64.3945 208.105C76.884 220.595 91.711 230.502 108.029 237.262C124.348 244.021 141.837 247.5 159.5 247.5L159.5 272.5Z" fill="#592C8F"/>
</svg>
